<svg width="361" height="581" viewBox="0 0 361 581" fill="none" xmlns="http://www.w3.org/2000/svg">
<path d="M232.5 278.5C170 259 67.5 233 123 278.5C178.5 323.999 310 390.5 310 390.5V472L1 278.5C1 278.5 12.4933 223.592 46.0002 192C81 159 112.5 161.817 205 202.5C297.5 243.183 248.5 80.5002 191 80.5002C133.5 80.5002 58.5004 157.5 53.0003 85.0003L46.0002 1L266.5 1C266.5 1 362.447 0.871819 359.5 62.4996C348.5 292.5 295 297.999 232.5 278.5Z" fill="black"/>
<path d="M46.0002 1C46.0002 1 47.5002 12.5002 53.0003 85.0003M46.0002 1L53.0003 85.0003M46.0002 1L266.5 1C266.5 1 362.447 0.871819 359.5 62.4996C348.5 292.5 295 297.999 232.5 278.5C170 259 67.5 233 123 278.5C178.5 323.999 310 390.5 310 390.5V472L1 278.5C1 278.5 12.4933 223.592 46.0002 192C81 159 112.5 161.817 205 202.5C297.5 243.183 248.5 80.5002 191 80.5002C133.5 80.5002 58.5004 157.5 53.0003 85.0003" stroke="black"/>
<path d="M1 465.278V321.5L310 511.368V579.5L58.9638 417.686V494.335L1 465.278Z" fill="black" stroke="black"/>
</svg>
